<?xml version="1.0" encoding="utf-8"?>
<!-- Generator: Adobe Illustrator 16.0.0, SVG Export Plug-In . SVG Version: 6.00 Build 0)  -->
<!DOCTYPE svg PUBLIC "-//W3C//DTD SVG 1.1//EN" "http://www.w3.org/Graphics/SVG/1.1/DTD/svg11.dtd">
<svg version="1.1" id="Layer_1" xmlns="http://www.w3.org/2000/svg" xmlns:xlink="http://www.w3.org/1999/xlink" x="0px" y="0px"
	 width="3354.111px" height="713.496px" viewBox="0 0 3354.111 713.496" enable-background="new 0 0 3354.111 713.496"
	 xml:space="preserve">
<g>
	<path d="M3335.258,476.767c-10.404,0-18.854,8.45-18.854,18.854s8.449,18.854,18.854,18.854c10.402,0,18.854-8.449,18.854-18.854
		C3354.111,485.217,3345.66,476.767,3335.258,476.767z M3335.258,511.485c-8.77,0-15.865-7.137-15.865-15.864
		c0-8.771,7.136-15.864,15.865-15.864c8.771,0,15.904,7.135,15.904,15.864C3351.162,504.35,3344.027,511.485,3335.258,511.485z
		 M3341.396,492.392c0-3.428-2.433-5.461-6.021-5.461h-6.021v17.181h2.949v-6.219h3.229l3.108,6.219h3.189l-3.428-6.855
		C3340.24,496.418,3341.396,494.743,3341.396,492.392z M3335.258,495.222h-2.91v-5.698h2.91c1.992,0,3.188,0.995,3.188,2.829
		C3338.445,494.226,3337.211,495.222,3335.258,495.222z M1063.508,285.956v-45.6h-69.914v271.288h69.914V348.976
		c0-29.457,18.895-43.927,48.352-43.927h38.266v-64.692h-32.686C1091.849,240.356,1069.607,253.709,1063.508,285.956z
		 M1215.615,133.053c-23.916,0-42.252,18.894-42.252,42.81c0,23.358,18.336,42.252,42.252,42.252s42.252-18.894,42.252-42.252
		C1257.866,151.946,1239.531,133.053,1215.615,133.053z M1180.737,511.645h69.756V240.356h-69.756V511.645z M1582.766,376
		c0,77.448-62.778,140.229-140.228,140.229c-31.251,0-59.591-10.243-82.313-27.544v102.602h-69.755v-350.93h69.755v22.959
		c22.722-17.299,51.062-27.543,82.313-27.543C1519.987,235.772,1582.766,298.552,1582.766,376z M1512.573,376
		c0-42.052-34.12-76.173-76.173-76.173c-42.054,0-76.174,34.121-76.174,76.173c0,42.053,34.121,76.173,76.174,76.173
		S1512.573,418.093,1512.573,376z M2795.152,352.204l-40.697-11.161c-26.785-6.976-37.189-15.187-37.189-29.337
		c0-13.792,14.668-23.438,35.636-23.438c19.971,0,35.635,13.074,35.635,29.815v1.554h64.295v-1.554
		c0-49.228-40.139-82.312-99.93-82.312c-59.191,0-102.201,33.044-102.201,78.604c0,35.436,23.478,62.143,64.453,73.223
		l38.983,10.644c29.615,8.211,40.617,17.3,40.617,33.603c0,17.181-15.904,28.739-39.582,28.739
		c-24.674,0-41.295-15.626-41.295-38.824v-1.555h-68.24v1.555c0,55.646,44.804,94.548,108.979,94.548
		c61.822,0,106.705-37.985,106.705-90.282C2861.32,400.354,2849.84,366.793,2795.152,352.204z M1830.219,240.356h69.754v271.288
		h-69.754v-22.96c-22.721,17.301-51.062,27.544-82.312,27.544c-77.447,0-140.228-62.779-140.228-140.229
		s62.78-140.228,140.228-140.228c31.25,0,59.592,10.244,82.312,27.543V240.356z M1830.219,376L1830.219,376
		c0-42.092-34.121-76.173-76.174-76.173s-76.172,34.121-76.172,76.173c0,42.053,34.119,76.173,76.172,76.173
		C1796.137,452.173,1830.219,418.093,1830.219,376z M2151.85,143.815h69.757v367.869h-69.757v-22.96
		c-22.721,17.301-51.061,27.544-82.311,27.544c-77.449,0-140.229-62.779-140.229-140.229s62.778-140.228,140.229-140.228
		c31.25,0,59.59,10.244,82.311,27.543V143.815z M2151.85,376c0-42.052-34.121-76.173-76.174-76.173
		c-42.051,0-76.172,34.121-76.172,76.173c0,42.053,34.08,76.173,76.172,76.173C2117.729,452.173,2151.85,418.093,2151.85,376z
		 M2545.469,511.645h69.754V240.356h-69.754V511.645z M2580.346,133.053c-23.916,0-42.252,18.894-42.252,42.81
		c0,23.358,18.336,42.252,42.252,42.252s42.252-18.894,42.252-42.252C2622.598,151.946,2604.262,133.053,2580.346,133.053z
		 M3162.822,376c0,77.448-62.779,140.229-140.229,140.229c-77.446,0-140.227-62.779-140.227-140.229s62.778-140.228,140.227-140.228
		C3100.043,235.772,3162.822,298.552,3162.822,376z M3098.768,376c0-42.052-34.121-76.173-76.174-76.173
		s-76.172,34.121-76.172,76.173c0,42.053,34.08,76.173,76.172,76.173C3064.646,452.173,3098.768,418.093,3098.768,376z
		 M1027.793,143.815H760.212v62.222h99.053v305.606h69.517V206.037h99.053v-62.222H1027.793z M2381.006,437.345l-62.062-196.988
		h-73.265l93.074,271.288h83.945l93.631-271.288h-73.264L2381.006,437.345z M3265.023,285.956v-45.6h-69.914v271.288h69.914V348.976
		c0-29.457,18.895-43.927,48.35-43.927h38.266v-64.692h-32.684C3293.363,240.356,3271.162,253.709,3265.023,285.956z"/>
	<circle fill="#34E0A1" cx="356.749" cy="356.748" r="356.748"/>
	<path d="M577.095,287.152l43.049-46.836h-95.465c-47.792-32.646-105.51-51.659-167.931-51.659
		c-62.342,0-119.899,19.054-167.612,51.659H93.432l43.049,46.836c-26.387,24.075-42.929,58.754-42.929,97.259
		c0,72.665,58.914,131.578,131.579,131.578c34.519,0,65.968-13.313,89.446-35.077l42.172,45.919l42.172-45.879
		c23.479,21.764,54.887,35.037,89.406,35.037c72.665,0,131.658-58.913,131.658-131.578
		C620.024,345.866,603.483,311.188,577.095,287.152z M225.17,473.458c-49.188,0-89.047-39.859-89.047-89.047
		c0-49.188,39.86-89.048,89.047-89.048s89.047,39.86,89.047,89.048C314.217,433.599,274.357,473.458,225.17,473.458z
		 M356.788,381.82 M488.367,473.458c-49.188,0-89.048-39.859-89.048-89.047c0-49.188,39.859-89.048,89.048-89.048
		c49.188,0,89.047,39.86,89.047,89.048C577.414,433.599,537.554,473.458,488.367,473.458z M488.367,337.694
		c-25.79,0-46.677,20.887-46.677,46.677c0,25.789,20.887,46.676,46.677,46.676c25.789,0,46.676-20.887,46.676-46.676
		C535.042,358.621,514.156,337.694,488.367,337.694z M271.846,384.411c0,25.789-20.887,46.676-46.676,46.676
		s-46.676-20.887-46.676-46.676c0-25.79,20.887-46.677,46.676-46.677C250.959,337.694,271.846,358.621,271.846,384.411z"/>
</g>
<rect x="1593.556" y="21.248" fill="#FFFFFF" width="1760.556" height="652"/>
<text transform="matrix(1.094 0 0 1 1655.4492 509.2256)" stroke="#000000" stroke-width="16" stroke-miterlimit="10" font-family="'MyriadPro-Regular'" font-size="529.143">Joy.co</text>
</svg>
